<?xml version="1.0" encoding="utf-8"?>
<!-- Generator: Adobe Illustrator 19.0.0, SVG Export Plug-In . SVG Version: 6.00 Build 0)  -->
<svg version="1.1" id="Layer_1" xmlns="http://www.w3.org/2000/svg" xmlns:xlink="http://www.w3.org/1999/xlink" x="0px" y="0px"
	 viewBox="0 0 1400 980" style="enable-background:new 0 0 1400 980;" xml:space="preserve">
<style type="text/css">
	.st0{fill:#2D2D2D;}
	.st1{fill:#383838;}
	.st2{fill:#F7D48F;}
	.st3{fill:#FFDEA4;}
	.st4{fill:#C9A961;}
	.st5{fill:#BA9B4D;}
	.st6{fill:#EAC47A;}
	.st7{fill:#DDB36B;}
	.st8{fill:none;}
</style>
<g id="XMLID_75_">
	<path id="XMLID_59_" class="st0" d="M376.6,327.1c-34,0-55.6-5.6-55.6-5.6c-23-16.3-50.6-15.6-50.6-15.6s-27.6-0.7-50.6,15.6
		c0,0-21.9,5.6-55.9,5.6S112,337,112,337v32.5v32.9c0,0,17.9,9.9,51.9,9.9s55.8,5.6,55.8,5.6c23,16.3,50.7,15.6,50.7,15.6
		s27.7,0.7,50.7-15.6c0,0,21.5-5.6,55.5-5.6s51.5-9.9,51.5-9.9v-32.9V337C428,337,410.6,327.1,376.6,327.1z"/>
	<path id="XMLID_60_" class="st1" d="M376.6,324.1c-34,0-55.6-5.6-55.6-5.6c-23-16.3-50.6-15.6-50.6-15.6s-27.6-0.7-50.6,15.6
		c0,0-21.9,5.6-55.9,5.6S112,334,112,334v32.5v32.9c0,0,17.9,9.9,51.9,9.9s55.8,5.6,55.8,5.6c23,16.3,50.7,15.6,50.7,15.6
		s27.7,0.7,50.7-15.6c0,0,21.5-5.6,55.5-5.6s51.5-9.9,51.5-9.9v-32.9V334C428,334,410.6,324.1,376.6,324.1z"/>
	<g id="XMLID_81_">
		<polygon id="XMLID_86_" class="st2" points="294,325 294,319.7 269,315 269,419 269.5,419 287,419 287,413.5 287.5,413.3 
			294.5,325.2 		"/>
		<path id="XMLID_87_" class="st3" d="M244,319.7v4.8c0.3,0.3,0.5,0.5,0.5,0.5l7,88.5l-0.5,0.4v5.1h18V315L244,319.7z"/>
		<polygon id="XMLID_88_" class="st4" points="217,340 217,393 220.6,395.3 223.9,397.5 224.8,336.5 		"/>
		<polygon id="XMLID_89_" class="st5" points="228.5,335 228,333.8 228,335 227.2,335.4 224.8,336.5 223.9,397.5 227,399.5 
			227,399.9 227.5,399.5 		"/>
		<polygon id="XMLID_90_" class="st6" points="228,331.8 228,333.8 228.5,335 227.5,399.5 227,399.9 227,405 245.6,411.6 
			246.4,411.9 237.7,327.7 		"/>
		<path id="XMLID_99_" class="st7" d="M244.5,325c0,0-0.2-0.2-0.5-0.5v0.5l-4.6,1.9l-1.7,0.7l8.7,84.2l4.6,1.6v0.4l0.5-0.4
			L244.5,325z"/>
		<polygon id="XMLID_100_" class="st7" points="299.2,327.2 294.5,325.2 287.5,413.3 291.1,412 291.6,411.9 300.3,327.7 		"/>
		<polygon id="XMLID_101_" class="st6" points="310,335 310,331.8 300.3,327.7 291.6,411.9 311,405 311,399.5 311.5,399.2 
			310.5,335.2 		"/>
		<polygon id="XMLID_102_" class="st4" points="316.4,337.9 313.2,336.5 314.1,397.5 317.6,395.2 321,393 321,340 		"/>
		<polygon id="XMLID_106_" class="st5" points="310.5,335.2 311.5,399.2 314.1,397.5 313.2,336.5 		"/>
	</g>
	<g id="XMLID_40_">
		<polygon id="XMLID_114_" class="st0" points="165,344 141,344 141,392 165,392 189,392 189,344 		"/>
		<g id="XMLID_67_">
			<g id="XMLID_105_">
				<path id="XMLID_113_" class="st8" d="M150,350v8.8c-0.9,2-1.4,4.3-1.4,6.7s0.5,4.6,1.4,6.7v8.9h9.3c1.8,0.7,3.7,1.1,5.7,1.1
					v-33.4c-2.2,0-4.3,0.5-6.2,1.3H150z"/>
				<path id="XMLID_112_" class="st8" d="M165.3,382.1c2.1,0,4.2-0.4,6-1.1h9.6v-9.7c0.7-1.8,1.1-3.8,1.1-5.9s-0.4-4-1.1-5.9V350
					h-9.2c-2-0.8-4.2-1.3-6.5-1.3c-0.1,0-0.2,0-0.3,0v33.4C165.1,382.1,165.2,382.1,165.3,382.1z"/>
				<path id="XMLID_111_" class="st2" d="M189,341h-24v7.7c0.1,0,0.2,0,0.3,0c2.3,0,4.5,0.5,6.5,1.3h9.2v9.6
					c0.7,1.8,1.1,3.8,1.1,5.9s-0.4,4-1.1,5.9v9.7h-9.6c-1.9,0.7-3.9,1.1-6,1.1c-0.1,0-0.2,0-0.3,0v6.9h24V341z"/>
				<path id="XMLID_110_" class="st6" d="M159.3,381H150v-8.9c-0.9-2-1.4-4.3-1.4-6.7s0.5-4.6,1.4-6.7V350h8.8
					c1.9-0.8,4-1.2,6.2-1.3V341h-24v48h24v-6.9C163,382.1,161.1,381.7,159.3,381z"/>
			</g>
			<path id="XMLID_104_" class="st5" d="M171.4,381h9.6v-9.7C179.3,375.7,175.8,379.3,171.4,381z"/>
			<path id="XMLID_103_" class="st5" d="M181,359.6V350h-9.2C176.1,351.8,179.4,355.3,181,359.6z"/>
			<path id="XMLID_72_" class="st5" d="M150,372.1v8.9h9.3C155.1,379.4,151.8,376.2,150,372.1z"/>
			<path id="XMLID_71_" class="st5" d="M158.8,350H150v8.8C151.7,354.8,154.9,351.7,158.8,350z"/>
			<path id="XMLID_69_" class="st2" d="M181,359.6c-1.6-4.3-4.9-7.8-9.2-9.6c-2-0.8-4.2-1.3-6.5-1.3s-4.5,0.5-6.5,1.3
				c-4,1.7-7.1,4.8-8.8,8.8c-0.9,2-1.4,4.3-1.4,6.7s0.5,4.6,1.4,6.7c1.8,4.1,5.1,7.3,9.3,8.9c1.9,0.7,3.9,1.1,6,1.1s4.2-0.4,6-1.1
				c4.4-1.7,7.9-5.3,9.6-9.7c0.7-1.8,1.1-3.8,1.1-5.9S181.7,361.4,181,359.6z"/>
			<path id="XMLID_68_" class="st6" d="M174.8,361.9c-1-2.6-3-4.7-5.5-5.8c-1.2-0.5-2.5-0.8-3.9-0.8s-2.7,0.3-3.9,0.8
				c-2.4,1-4.3,2.9-5.3,5.3c-0.5,1.2-0.8,2.6-0.8,4s0.3,2.8,0.8,4c1.1,2.5,3.1,4.4,5.6,5.4c1.1,0.4,2.4,0.7,3.6,0.7s2.5-0.3,3.6-0.7
				c2.7-1,4.8-3.2,5.8-5.9c0.4-1.1,0.6-2.3,0.6-3.5C175.4,364.2,175.2,363,174.8,361.9z"/>
		</g>
	</g>
	<g id="XMLID_62_">
		<polygon id="XMLID_98_" class="st0" points="374,344 350,344 350,392 374,392 398,392 398,344 		"/>
		<g id="XMLID_63_">
			<g id="XMLID_93_">
				<path id="XMLID_97_" class="st8" d="M359,350v8.8c-0.9,2-1.4,4.3-1.4,6.7s0.5,4.6,1.4,6.7v8.9h9.3c1.8,0.7,3.7,1.1,5.7,1.1
					v-33.4c-2.2,0-4.3,0.5-6.2,1.3H359z"/>
				<path id="XMLID_96_" class="st8" d="M374.3,382.1c2.1,0,4.2-0.4,6-1.1h9.6v-9.7c0.7-1.8,1.1-3.8,1.1-5.9s-0.4-4-1.1-5.9V350
					h-9.2c-2-0.8-4.2-1.3-6.5-1.3c-0.1,0-0.2,0-0.3,0v33.4C374.1,382.1,374.2,382.1,374.3,382.1z"/>
				<path id="XMLID_95_" class="st2" d="M398,341h-24v7.7c0.1,0,0.2,0,0.3,0c2.3,0,4.5,0.5,6.5,1.3h9.2v9.6c0.7,1.8,1.1,3.8,1.1,5.9
					s-0.4,4-1.1,5.9v9.7h-9.6c-1.9,0.7-3.9,1.1-6,1.1c-0.1,0-0.2,0-0.3,0v6.9h24V341z"/>
				<path id="XMLID_94_" class="st6" d="M368.3,381H359v-8.9c-0.9-2-1.4-4.3-1.4-6.7s0.5-4.6,1.4-6.7V350h8.8c1.9-0.8,4-1.2,6.2-1.3
					V341h-24v48h24v-6.9C372,382.1,370.1,381.7,368.3,381z"/>
			</g>
			<path id="XMLID_92_" class="st5" d="M380.4,381h9.6v-9.7C388.3,375.7,384.8,379.3,380.4,381z"/>
			<path id="XMLID_91_" class="st5" d="M390,359.6V350h-9.2C385.1,351.8,388.4,355.3,390,359.6z"/>
			<path id="XMLID_70_" class="st5" d="M359,372.1v8.9h9.3C364.1,379.4,360.8,376.2,359,372.1z"/>
			<path id="XMLID_66_" class="st5" d="M367.8,350H359v8.8C360.7,354.8,363.9,351.7,367.8,350z"/>
			<path id="XMLID_65_" class="st2" d="M390,359.6c-1.6-4.3-4.9-7.8-9.2-9.6c-2-0.8-4.2-1.3-6.5-1.3s-4.5,0.5-6.5,1.3
				c-4,1.7-7.1,4.8-8.8,8.8c-0.9,2-1.4,4.3-1.4,6.7s0.5,4.6,1.4,6.7c1.8,4.1,5.1,7.3,9.3,8.9c1.9,0.7,3.9,1.1,6,1.1s4.2-0.4,6-1.1
				c4.4-1.7,7.9-5.3,9.6-9.7c0.7-1.8,1.1-3.8,1.1-5.9S390.7,361.4,390,359.6z"/>
			<path id="XMLID_64_" class="st6" d="M383.8,361.9c-1-2.6-3-4.7-5.5-5.8c-1.2-0.5-2.5-0.8-3.9-0.8s-2.7,0.3-3.9,0.8
				c-2.4,1-4.3,2.9-5.3,5.3c-0.5,1.2-0.8,2.6-0.8,4s0.3,2.8,0.8,4c1.1,2.5,3.1,4.4,5.6,5.4c1.1,0.4,2.4,0.7,3.6,0.7s2.5-0.3,3.6-0.7
				c2.7-1,4.8-3.2,5.8-5.9c0.4-1.1,0.6-2.3,0.6-3.5C384.4,364.2,384.2,363,383.8,361.9z"/>
		</g>
	</g>
	<circle id="XMLID_61_" class="st3" cx="269" cy="365" r="16.3"/>
	<circle id="XMLID_74_" class="st2" cx="269" cy="365" r="10.1"/>
</g>
<g id="XMLID_50_">
	<path id="XMLID_43_" class="st0" d="M745.5,322.3c-4.4-9.9-14.3-16.8-25.8-16.8c-2.9,0-5.6,0.4-8.3,1.2c-7.5-9.2-18.9-15-31.7-15
		c-12.7,0-24,5.7-31.5,14.8c-2.4-0.6-4.9-1-7.5-1c-11.5,0-21.6,6.9-26,16.8c-8.6,17-30.7,20.2-105.7,20.2V374v31.5
		c76,0,98,3.2,106.3,21l0.1,0c4.7,9.2,14.2,15.5,25.3,15.5c2.9,0,5.7-0.4,8.3-1.2c7.5,9.2,19,15,31.7,15c12.7,0,24-5.7,31.5-14.8
		c2.4,0.6,4.9,1,7.5,1c11,0,20.6-6.3,25.2-15.5l0,0c8.3-17.8,30.1-21,106.1-21V374v-31.5C777,342.5,754.1,339.4,745.5,322.3z"/>
	<path id="XMLID_2_" class="st1" d="M745.5,318.3c-4.4-9.9-14.3-16.8-25.8-16.8c-2.9,0-5.6,0.4-8.3,1.2c-7.5-9.2-18.9-15-31.7-15
		c-12.7,0-24,5.7-31.5,14.8c-2.4-0.6-4.9-1-7.5-1c-11.5,0-21.6,6.9-26,16.8c-8.6,17-30.7,20.2-105.7,20.2V370v31.5
		c76,0,98,3.2,106.3,21l0.1,0c4.7,9.2,14.2,15.5,25.3,15.5c2.9,0,5.7-0.4,8.3-1.2c7.5,9.2,19,15,31.7,15c12.7,0,24-5.7,31.5-14.8
		c2.4,0.6,4.9,1,7.5,1c11,0,20.6-6.3,25.2-15.5l0,0c8.3-17.8,30.1-21,106.1-21V370v-31.5C777,338.5,754.1,335.4,745.5,318.3z"/>
	<g id="XMLID_13_">
		<g id="XMLID_15_">
			<path id="XMLID_16_" class="st2" d="M805,347v45.5c12.6,0,22.8-10.2,22.8-22.8C827.8,357.1,817.6,347,805,347z"/>
			<path id="XMLID_17_" class="st6" d="M782.3,369.7c0,12.6,10.2,22.8,22.8,22.8V347C792.4,347,782.3,357.1,782.3,369.7z"/>
		</g>
		<circle id="XMLID_14_" class="st7" cx="805" cy="369.7" r="14.9"/>
		<polygon id="XMLID_12_" class="st3" points="810.4,372 811.6,379.6 804.8,375.9 798,379.4 799.4,371.8 793.9,366.4 801.6,365.4 
			805,358.6 808.4,365.5 815.9,366.7 		"/>
	</g>
	<g id="XMLID_21_">
		<g id="XMLID_24_">
			<path id="XMLID_26_" class="st2" d="M556,347v45.5c12.6,0,22.8-10.2,22.8-22.8C578.8,357.1,568.6,347,556,347z"/>
			<path id="XMLID_25_" class="st6" d="M533.3,369.7c0,12.6,10.2,22.8,22.8,22.8V347C543.4,347,533.3,357.1,533.3,369.7z"/>
		</g>
		<circle id="XMLID_23_" class="st7" cx="556" cy="369.7" r="14.9"/>
		<polygon id="XMLID_22_" class="st3" points="561.4,372 562.6,379.6 555.8,375.9 549,379.4 550.4,371.8 544.9,366.4 552.6,365.4 
			556,358.6 559.4,365.5 566.9,366.7 		"/>
	</g>
	<g id="XMLID_19_">
		<g id="XMLID_5_">
			<g id="XMLID_3_">
				<path id="XMLID_4_" class="st7" d="M679.7,300.5c-10.7,0-20.3,4.9-26.6,12.5c-2-0.5-4.1-0.8-6.3-0.8c-9.7,0-18,5.8-21.7,14.2
					c-3.5,6.9-9.6,11.1-22,13.6v60c12.9,2.6,19.1,7,22.5,14.4l0,0c3.9,7.8,12,13.1,21.3,13.1c2.4,0,4.8-0.4,7-1
					c6.4,7.7,16,12.7,26.8,12.7c0.1,0,0.3,0,0.4,0V300.5C680.6,300.5,680.1,300.5,679.7,300.5z"/>
				<path id="XMLID_7_" class="st6" d="M735.1,326.3c-3.7-8.4-12-14.2-21.7-14.2c-2.4,0-4.7,0.4-6.9,1c-6.1-7.4-15.2-12.3-25.5-12.6
					V439c10.5-0.1,19.9-4.9,26.2-12.5c2,0.5,4.1,0.8,6.3,0.8c9.3,0,17.4-5.3,21.3-13.1l-0.2,0c3.4-7.3,9.6-11.7,22.4-14.3v-60.1
					C744.8,337.3,738.5,333.2,735.1,326.3z"/>
			</g>
			<path id="XMLID_9_" class="st6" d="M725.7,333.9c-3.1-6.9-10-11.7-18-11.7c-2,0-3.9,0.3-5.7,0.9c-5-6.1-13-10.1-21-10.4
				c-1,0-0.8,0-1.2,0c-8.8,0-16.8,4-22,10.3c-1.7-0.5-3.4-0.7-5.2-0.7c-8,0-15.1,4.8-18.2,11.7c-2.9,5.7-7.4,9.2-18.4,11.2v49.5
				c11,2.1,16,5.8,18.8,11.8l0.1,0c3.2,6.4,9.9,10.8,17.6,10.8c2,0,4-0.3,5.8-0.9c5.2,6.4,13.3,10.5,22.2,10.5c0.1,0,0.5,0,0.5,0
				c9-0.1,16.4-4.1,21.5-10.3c1.7,0.5,3.4,0.7,5.2,0.7c7.7,0,14.3-4.4,17.6-10.8l0,0c2.8-6.1,7.7-9.7,18.7-11.8v-49.6
				C733,343,728.6,339.6,725.7,333.9z"/>
			<g id="XMLID_6_">
				<path id="XMLID_8_" class="st3" d="M725.8,340.8c-3.1-5.6-9.9-9.5-18.1-9.5c-2,0-3.8,0.2-5.7,0.7c-5.1-5-13-8.2-21.1-8.4V416
					c0,0,0,0,0,0c9.1,0,16.5-3.3,21.7-8.3c1.7,0.4,3.4,0.6,5.2,0.6c7.7,0,14.4-3.6,17.7-8.8l-0.2,0c2.8-4.9,8.1-7.8,18.6-9.6v-40.1
					C733.5,348.1,728.7,345.3,725.8,340.8z"/>
				<path id="XMLID_10_" class="st2" d="M681,323.5c-1,0-0.8,0-1.2,0c-8.9,0-16.9,3.2-22.2,8.3c-1.7-0.4-3.4-0.6-5.2-0.6
					c-8.1,0-15,3.9-18.1,9.5c-2.9,4.6-7.9,7.4-18.3,9.1v40.1c10.5,1.7,15.9,4.7,18.7,9.6l0,0c3.3,5.2,10,8.8,17.7,8.8
					c2,0,4-0.2,5.8-0.7c5.3,5.2,13.4,8.5,22.4,8.5c0.1,0,0.4,0,0.4,0L681,323.5C681,323.5,681,323.5,681,323.5z"/>
			</g>
			<circle id="XMLID_1_" class="st7" cx="681.2" cy="369.7" r="36.8"/>
			<circle id="XMLID_11_" class="st6" cx="681.2" cy="369.7" r="21.3"/>
		</g>
		<polygon id="XMLID_18_" class="st2" points="693.9,374.5 696.9,393.1 680.4,384.1 663.6,392.6 667,374.2 653.8,360.9 672.4,358.4 
			680.9,341.7 689,358.6 707.5,361.6 		"/>
		<polygon id="XMLID_42_" class="st3" points="689.6,372.8 691.6,385.3 680.5,379.3 669.1,385 671.4,372.5 662.5,363.6 675.1,361.9 
			680.8,350.6 686.3,362 698.9,364 		"/>
	</g>
</g>
<g id="XMLID_46_">
	<g id="XMLID_44_">
		<path id="XMLID_84_" class="st0" d="M1309,344.2h-106.4c-0.1-0.5-0.2-1-0.3-1.5c-1.1-3.5-4.2-6-7.9-6.3c0.5-1.9,0.3-3.9-0.5-5.8
			c-1.4-3.3-4.7-5.4-8.2-5.4c0.5-2.1,0.1-4.4-1-6.4c-1.9-3.3-5.6-5-9.3-4.4l-27.4,4.5c-19.9-4.4-39.3-4.5-40.1-4.5
			s-20.2,0.1-40.2,4.5l-27.4-4.5c-3.7-0.6-7.4,1.1-9.2,4.4c-1.1,2-1.5,4.3-1,6.4c-3.5,0-6.7,2.1-8.2,5.4c-0.8,1.9-1,3.9-0.5,5.8
			c-3.6,0.3-6.8,2.7-7.9,6.3c-0.2,0.5-0.3,1-0.3,1.5H907.1v63.4h106.1c0,0.9,0.1,1.8,0.4,2.7c1.1,3.5,4.2,6,7.8,6.3
			c-0.5,1.9-0.3,3.9,0.5,5.8c1.4,3.3,4.7,5.4,8.2,5.4c-0.5,2.1-0.1,4.4,1,6.4c1.6,2.8,4.6,4.5,7.8,4.5c0.5,0,1,0,1.5-0.1l27.4-4.5
			c19.9,4.4,39.3,4.4,40.1,4.4c0.8,0,20.2,0,40.1-4.4l27.4,4.5c3.7,0.6,7.4-1.1,9.2-4.4c1.1-2,1.5-4.3,1-6.4c3.5,0,6.7-2.1,8.2-5.4
			c0.8-1.9,1-3.9,0.5-5.8c3.6-0.3,6.7-2.7,7.8-6.3c0.3-0.9,0.4-1.8,0.4-2.7H1309V344.2z"/>
		<path id="XMLID_107_" class="st1" d="M1309,340.7h-106.4c-0.1-0.5-0.2-1-0.3-1.5c-1.1-3.5-4.2-6-7.9-6.3c0.5-1.9,0.3-3.9-0.5-5.8
			c-1.4-3.3-4.7-5.4-8.2-5.4c0.5-2.1,0.1-4.4-1-6.4c-1.9-3.3-5.6-5-9.3-4.4l-27.4,4.5c-19.9-4.4-39.3-4.5-40.1-4.5
			s-20.2,0.1-40.2,4.5l-27.4-4.5c-3.7-0.6-7.4,1.1-9.2,4.4c-1.1,2-1.5,4.3-1,6.4c-3.5,0-6.7,2.1-8.2,5.4c-0.8,1.9-1,3.9-0.5,5.8
			c-3.6,0.3-6.8,2.7-7.9,6.3c-0.2,0.5-0.3,1-0.3,1.5H907.1v63.4h106.1c0,0.9,0.1,1.8,0.4,2.7c1.1,3.5,4.2,6,7.8,6.3
			c-0.5,1.9-0.3,3.9,0.5,5.8c1.4,3.3,4.7,5.4,8.2,5.4c-0.5,2.1-0.1,4.4,1,6.4c1.6,2.8,4.6,4.5,7.8,4.5c0.5,0,1,0,1.5-0.1l27.4-4.5
			c19.9,4.4,39.3,4.4,40.1,4.4c0.8,0,20.2,0,40.1-4.4l27.4,4.5c3.7,0.6,7.4-1.1,9.2-4.4c1.1-2,1.5-4.3,1-6.4c3.5,0,6.7-2.1,8.2-5.4
			c0.8-1.9,1-3.9,0.5-5.8c3.6-0.3,6.7-2.7,7.8-6.3c0.3-0.9,0.4-1.8,0.4-2.7H1309V340.7z"/>
		<path id="XMLID_146_" class="st0" d="M1172.9,375L1172.9,375c0.1-19,20.8-31.1,20.8-31.1l-18.1,1.4c4.9-8,10.1-12.5,10.1-12.5
			l-16.5,1.9c4-8.3,7.7-12.8,7.7-12.8l-29.2,4.8c-19.8-4.6-39.9-4.6-39.9-4.6s-20.1,0-39.9,4.6l-29.2-4.8c0,0,3.8,4.5,7.7,12.8
			l-16.4-1.9c0,0,5.2,4.5,10.1,12.5l-18.1-1.4c0,0,20.8,12.1,20.8,31.1h0.1c0,19-20.8,31.1-20.8,31.1l18.2-1.4
			c-4.9,8-10.2,12.5-10.2,12.5l16.5-1.9c-4,8.3-7.7,12.8-7.7,12.8l29.1-4.8c19.8,4.6,39.9,4.6,39.9,4.6s20.1,0,39.8-4.6l29.1,4.8
			c0,0-3.8-4.5-7.7-12.8l16.5,1.9c0,0-5.2-4.5-10.2-12.5l18.2,1.4C1193.7,406.1,1172.9,394,1172.9,375z"/>
		<g id="XMLID_47_">
			<path id="XMLID_145_" class="st7" d="M1173,372c0-19,20.8-31.1,20.8-31.1l-36.2,2.8C1133,341,1108,341,1108,341s-25,0-49.5,2.7
				l-36.2-2.8c0,0,20.8,12.1,20.8,31.1h0.1c0,19-20.8,31.1-20.8,31.1l36.2-2.8c24.5,2.7,49.5,2.7,49.5,2.7s25,0,49.5-2.7l36.2,2.8
				C1193.7,403.1,1172.9,391,1173,372L1173,372z"/>
			<path id="XMLID_144_" class="st6" d="M1166.9,372c0-26,18.8-42.2,18.8-42.2l-32.8,3.8c-22.3-3.7-44.9-3.7-44.9-3.7
				s-22.7,0-44.9,3.7l-32.9-3.8c0,0,18.8,16.2,18.8,42.2h0c0,26-18.8,42.2-18.8,42.2l32.8-3.8c22.3,3.7,44.9,3.6,44.9,3.6
				s22.6,0,44.9-3.6l32.8,3.8C1185.7,414.2,1166.9,398,1166.9,372L1166.9,372z"/>
			<g id="XMLID_141_">
				<path id="XMLID_143_" class="st2" d="M1068.1,323.6l-29.2-4.8c0,0,16.7,20.2,16.7,53.2h0c0,33-16.7,53.1-16.7,53.1l29.1-4.8
					c19.8,4.6,39.9,4.6,39.9,4.6V319C1108,319,1087.9,319,1068.1,323.6z"/>
				<path id="XMLID_142_" class="st3" d="M1160.3,372c0-33,16.7-53.2,16.7-53.2l-29.2,4.8c-19.8-4.6-39.9-4.6-39.9-4.6v105.8
					c0,0,20.1,0,39.8-4.6l29.1,4.8C1177,425.1,1160.3,405,1160.3,372L1160.3,372z"/>
			</g>
			<path id="XMLID_140_" class="st6" d="M1144.4,372c0-25,11.6-40.5,11.6-40.5l-20.3,3.6c-13.7-3.5-27.7-3.5-27.7-3.5
				s-14,0-27.7,3.5l-20.3-3.6c0,0,11.6,15.5,11.6,40.5h0c0,25-11.6,40.4-11.6,40.4l20.3-3.7c13.7,3.5,27.7,3.5,27.7,3.5
				s14,0,27.7-3.5l20.3,3.7C1156,412.4,1144.3,397,1144.4,372L1144.4,372z"/>
			<circle id="XMLID_139_" class="st2" cx="1107.5" cy="370.9" r="24.7"/>
			<circle id="XMLID_138_" class="st6" cx="1107.5" cy="370.9" r="19"/>
			<path id="XMLID_137_" class="st3" d="M1123.9,347.3c-6.2-1.8-15-2-15.9-2v0c0,0-0.4,0-0.4,0c0,0-0.5,0-0.5,0v0
				c-0.9,0-9.7,0.2-15.9,2c0,0-7.3,37.7,14.1,37.7c0,0,0.2,3.7-0.6,6.4c0,0-5.6-0.3-9.8,6c0,0,5.6,0.9,12.2,0.9v0c0,0,0.5,0,0.5,0
				c0,0,0.4,0,0.4,0v0c6.6,0,12.2-0.9,12.2-0.9c-4.2-6.3-9.7-6-9.7-6c-0.8-2.7-0.6-6.4-0.6-6.4
				C1131.2,385,1123.9,347.3,1123.9,347.3z"/>
		</g>
		<g id="XMLID_48_">
			<polygon id="XMLID_122_" class="st0" points="964,360.2 949,360.2 949,390.2 964,390.2 979,390.2 979,360.2 			"/>
			<g id="XMLID_49_">
				<g id="XMLID_117_">
					<path id="XMLID_121_" class="st8" d="M954.6,363.9v5.5c-0.6,1.3-0.9,2.7-0.9,4.2c0,1.5,0.3,2.9,0.9,4.2v5.6h5.8
						c1.1,0.4,2.3,0.7,3.6,0.7v-20.9c-1.4,0-2.7,0.3-3.8,0.8H954.6z"/>
					<path id="XMLID_120_" class="st8" d="M964.2,384c1.3,0,2.6-0.3,3.8-0.7h6v-6.1c0.4-1.1,0.7-2.4,0.7-3.7c0-1.3-0.2-2.5-0.7-3.7
						v-6h-5.7c-1.2-0.5-2.6-0.8-4.1-0.8c-0.1,0-0.1,0-0.2,0V384C964.1,384,964.1,384,964.2,384z"/>
					<path id="XMLID_119_" class="st2" d="M979,358.3h-15v4.8c0.1,0,0.1,0,0.2,0c1.4,0,2.8,0.3,4.1,0.8h5.7v6
						c0.4,1.1,0.7,2.4,0.7,3.7c0,1.3-0.2,2.5-0.7,3.7v6.1h-6c-1.2,0.5-2.4,0.7-3.8,0.7c-0.1,0-0.1,0-0.2,0v4.3h15V358.3z"/>
					<path id="XMLID_118_" class="st6" d="M960.4,383.3h-5.8v-5.6c-0.6-1.3-0.9-2.7-0.9-4.2c0-1.5,0.3-2.9,0.9-4.2v-5.5h5.5
						c1.2-0.5,2.5-0.8,3.8-0.8v-4.8h-15v30h15V384C962.7,384,961.5,383.7,960.4,383.3z"/>
				</g>
				<path id="XMLID_116_" class="st5" d="M968,383.3h6v-6.1C972.9,380,970.7,382.2,968,383.3z"/>
				<path id="XMLID_115_" class="st5" d="M974,369.9v-6h-5.7C970.9,365.1,973,367.2,974,369.9z"/>
				<path id="XMLID_109_" class="st5" d="M954.6,377.7v5.6h5.8C957.8,382.3,955.7,380.3,954.6,377.7z"/>
				<path id="XMLID_108_" class="st5" d="M960.1,363.9h-5.5v5.5C955.7,367,957.7,365,960.1,363.9z"/>
				<path id="XMLID_85_" class="st2" d="M974,369.9c-1-2.7-3.1-4.9-5.7-6c-1.2-0.5-2.6-0.8-4.1-0.8c-1.4,0-2.8,0.3-4.1,0.8
					c-2.5,1-4.5,3-5.5,5.5c-0.6,1.3-0.9,2.7-0.9,4.2c0,1.5,0.3,2.9,0.9,4.2c1.1,2.5,3.2,4.6,5.8,5.6c1.2,0.5,2.4,0.7,3.8,0.7
					c1.3,0,2.6-0.3,3.8-0.7c2.8-1.1,5-3.3,6-6.1c0.4-1.1,0.7-2.4,0.7-3.7C974.6,372.3,974.4,371.1,974,369.9z"/>
				<path id="XMLID_73_" class="st6" d="M970.1,371.4c-0.6-1.6-1.9-2.9-3.4-3.6c-0.8-0.3-1.6-0.5-2.4-0.5s-1.7,0.2-2.4,0.5
					c-1.5,0.6-2.7,1.8-3.3,3.3c-0.3,0.8-0.5,1.6-0.5,2.5c0,0.9,0.2,1.7,0.5,2.5c0.7,1.5,1.9,2.7,3.5,3.4c0.7,0.3,1.5,0.4,2.3,0.4
					s1.6-0.2,2.3-0.4c1.7-0.6,3-2,3.6-3.7c0.3-0.7,0.4-1.4,0.4-2.2C970.5,372.8,970.3,372.1,970.1,371.4z"/>
			</g>
		</g>
		<g id="XMLID_123_">
			<polygon id="XMLID_136_" class="st0" points="1250.4,360.2 1235.4,360.2 1235.4,390.2 1250.4,390.2 1265.3,390.2 1265.3,360.2 
							"/>
			<g id="XMLID_124_">
				<g id="XMLID_131_">
					<path id="XMLID_135_" class="st8" d="M1241,363.9v5.5c-0.6,1.3-0.9,2.7-0.9,4.2c0,1.5,0.3,2.9,0.9,4.2v5.6h5.8
						c1.1,0.4,2.3,0.7,3.6,0.7v-20.9c-1.4,0-2.7,0.3-3.8,0.8H1241z"/>
					<path id="XMLID_134_" class="st8" d="M1250.6,384c1.3,0,2.6-0.3,3.8-0.7h6v-6.1c0.4-1.1,0.7-2.4,0.7-3.7c0-1.3-0.2-2.5-0.7-3.7
						v-6h-5.7c-1.2-0.5-2.6-0.8-4.1-0.8c-0.1,0-0.1,0-0.2,0V384C1250.4,384,1250.5,384,1250.6,384z"/>
					<path id="XMLID_133_" class="st2" d="M1265.3,358.3h-15v4.8c0.1,0,0.1,0,0.2,0c1.4,0,2.8,0.3,4.1,0.8h5.7v6
						c0.4,1.1,0.7,2.4,0.7,3.7c0,1.3-0.2,2.5-0.7,3.7v6.1h-6c-1.2,0.5-2.4,0.7-3.8,0.7c-0.1,0-0.1,0-0.2,0v4.3h15V358.3z"/>
					<path id="XMLID_132_" class="st6" d="M1246.8,383.3h-5.8v-5.6c-0.6-1.3-0.9-2.7-0.9-4.2c0-1.5,0.3-2.9,0.9-4.2v-5.5h5.5
						c1.2-0.5,2.5-0.8,3.8-0.8v-4.8h-15v30h15V384C1249.1,384,1247.9,383.7,1246.8,383.3z"/>
				</g>
				<path id="XMLID_130_" class="st5" d="M1254.3,383.3h6v-6.1C1259.3,380,1257.1,382.2,1254.3,383.3z"/>
				<path id="XMLID_129_" class="st5" d="M1260.3,369.9v-6h-5.7C1257.3,365.1,1259.3,367.2,1260.3,369.9z"/>
				<path id="XMLID_128_" class="st5" d="M1241,377.7v5.6h5.8C1244.2,382.3,1242.1,380.3,1241,377.7z"/>
				<path id="XMLID_127_" class="st5" d="M1246.5,363.9h-5.5v5.5C1242.1,367,1244,365,1246.5,363.9z"/>
				<path id="XMLID_126_" class="st2" d="M1260.3,369.9c-1-2.7-3.1-4.9-5.7-6c-1.2-0.5-2.6-0.8-4.1-0.8c-1.4,0-2.8,0.3-4.1,0.8
					c-2.5,1-4.5,3-5.5,5.5c-0.6,1.3-0.9,2.7-0.9,4.2c0,1.5,0.3,2.9,0.9,4.2c1.1,2.5,3.2,4.6,5.8,5.6c1.2,0.5,2.4,0.7,3.8,0.7
					c1.3,0,2.6-0.3,3.8-0.7c2.8-1.1,5-3.3,6-6.1c0.4-1.1,0.7-2.4,0.7-3.7C1261,372.3,1260.8,371.1,1260.3,369.9z"/>
				<path id="XMLID_125_" class="st6" d="M1256.5,371.4c-0.6-1.6-1.9-2.9-3.4-3.6c-0.8-0.3-1.6-0.5-2.4-0.5c-0.9,0-1.7,0.2-2.4,0.5
					c-1.5,0.6-2.7,1.8-3.3,3.3c-0.3,0.8-0.5,1.6-0.5,2.5c0,0.9,0.2,1.7,0.5,2.5c0.7,1.5,1.9,2.7,3.5,3.4c0.7,0.3,1.5,0.4,2.3,0.4
					s1.6-0.2,2.3-0.4c1.7-0.6,3-2,3.6-3.7c0.3-0.7,0.4-1.4,0.4-2.2C1256.9,372.8,1256.7,372.1,1256.5,371.4z"/>
			</g>
		</g>
	</g>
	<circle id="XMLID_45_" class="st2" cx="1107.5" cy="366" r="8.1"/>
</g>
<g id="XMLID_41_">
	<path id="XMLID_77_" class="st0" d="M428.3,600.9c-21.3,0-54.3,0-65,0c-1.1,0-2.7,0-4.8,0c-2.3-2.2-4.7-4.1-6.9-5.7
		c-4.5-3.5-8.8-6.8-11.9-11.7c-10.2-16-28.3-20.5-37.5-21.9c-12.7-11.5-24.9-12.6-26.4-12.7l-0.8-0.1l-0.8,0.1
		c-1.5,0.1-13.7,1.2-26.4,12.7c-9.1,1.3-27.3,5.9-37.5,21.9c-3.1,4.9-7.4,8.2-11.9,11.7c-2.2,1.7-4.6,3.6-6.9,5.7
		c-2.1,0-3.7,0-4.8,0c-10.7,0-43.7,0-65,0c-21.3,0-31.2,6.8-31.2,6.8v24.7v0.1v24.7c0,0,9.8,6.8,31.2,6.8c21.3,0,54.3,0,65,0
		c1.2,0,3.1,0,5.4,0c2.1,1.9,4.3,3.6,6.3,5.1c4.5,3.5,8.8,6.8,11.9,11.7c10.2,16,28.3,20.5,37.5,21.9c12.7,11.5,24.9,12.6,26.4,12.7
		l0.8,0.1l0.8-0.1c1.5-0.1,13.7-1.2,26.4-12.7c9.1-1.3,27.3-5.9,37.5-21.9c3.1-4.9,7.4-8.2,11.9-11.7c2-1.5,4.1-3.2,6.3-5.1
		c2.4,0,4.2,0,5.4,0c10.7,0,43.7,0,65,0c21.3,0,31.2-6.8,31.2-6.8v-24.7v-0.1v-24.7C459.5,607.7,449.6,600.9,428.3,600.9z"/>
	<path id="XMLID_151_" class="st1" d="M428.3,597.9c-21.3,0-54.3,0-65,0c-1.1,0-2.7,0-4.8,0c-2.3-2.2-4.7-4.1-6.9-5.7
		c-4.5-3.5-8.8-6.8-11.9-11.7c-10.2-16-28.3-20.5-37.5-21.9c-12.7-11.5-24.9-12.6-26.4-12.7l-0.8-0.1l-0.8,0.1
		c-1.5,0.1-13.7,1.2-26.4,12.7c-9.1,1.3-27.3,5.9-37.5,21.9c-3.1,4.9-7.4,8.2-11.9,11.7c-2.2,1.7-4.6,3.6-6.9,5.7
		c-2.1,0-3.7,0-4.8,0c-10.7,0-43.7,0-65,0c-21.3,0-31.2,6.8-31.2,6.8v24.7v0.1v24.7c0,0,9.8,6.8,31.2,6.8c21.3,0,54.3,0,65,0
		c1.2,0,3.1,0,5.4,0c2.1,1.9,4.3,3.6,6.3,5.1c4.5,3.5,8.8,6.8,11.9,11.7c10.2,16,28.3,20.5,37.5,21.9c12.7,11.5,24.9,12.6,26.4,12.7
		l0.8,0.1l0.8-0.1c1.5-0.1,13.7-1.2,26.4-12.7c9.1-1.3,27.3-5.9,37.5-21.9c3.1-4.9,7.4-8.2,11.9-11.7c2-1.5,4.1-3.2,6.3-5.1
		c2.4,0,4.2,0,5.4,0c10.7,0,43.7,0,65,0c21.3,0,31.2-6.8,31.2-6.8v-24.7v-0.1v-24.7C459.5,604.7,449.6,597.9,428.3,597.9z"/>
	<path id="XMLID_162_" class="st0" d="M328.8,590.1c-10.1-15.9-32.4-16.4-32.4-16.4c-10.8-11.5-21.4-12.2-21.4-12.2
		s-10.6,0.7-21.4,12.2c0,0-22.3,0.5-32.4,16.4s-27.3,18.4-27.3,33v8.6v8.6c0,14.6,17.1,17.1,27.3,33s32.4,16.4,32.4,16.4
		c10.8,11.5,21.4,12.2,21.4,12.2s10.6-0.7,21.4-12.2c0,0,22.3-0.5,32.4-16.4s27.3-18.4,27.3-33v-8.6v-8.6
		C356,608.5,338.9,606,328.8,590.1z"/>
	<g id="XMLID_153_">
		<path id="XMLID_161_" class="st6" d="M328.8,587.6c-10.1-15.9-32.4-16.4-32.4-16.4C285.6,559.7,275,559,275,559
			s-10.6,0.7-21.4,12.2c0,0-22.3,0.5-32.4,16.4s-27.3,18.4-27.3,33v8.6v8.6c0,14.6,17.1,17.1,27.3,33s32.4,16.4,32.4,16.4
			c10.8,11.5,21.4,12.2,21.4,12.2s10.6-0.7,21.4-12.2c0,0,22.3-0.5,32.4-16.4s27.3-18.4,27.3-33v-8.6v-8.6
			C356,605.9,338.9,603.4,328.8,587.6z"/>
		<path id="XMLID_160_" class="st2" d="M323.9,591.3c-9.2-14.4-29.4-14.9-29.4-14.9c-9.8-10.5-19.4-11.1-19.4-11.1
			s-9.7,0.6-19.4,11.1c0,0-20.2,0.5-29.4,14.9s-24.8,16.7-24.8,30v7.8v7.8c0,13.3,15.6,15.6,24.8,30s29.4,14.9,29.4,14.9
			C265.3,692.3,275,693,275,693s9.7-0.6,19.4-11.1c0,0,20.2-0.5,29.4-14.9s24.8-16.7,24.8-30v-7.8v-7.8
			C348.7,608,333.1,605.8,323.9,591.3z"/>
		<g id="XMLID_157_">
			<path id="XMLID_159_" class="st6" d="M224,629.5c0,28.2,22.8,51,51,51v-102C246.8,578.4,224,601.3,224,629.5z"/>
			<path id="XMLID_158_" class="st7" d="M275,578.4v102c28.2,0,51-22.8,51-51C326,601.3,303.2,578.4,275,578.4z"/>
		</g>
		<circle id="XMLID_156_" class="st2" cx="275" cy="629.5" r="42.1"/>
		<polygon id="XMLID_155_" class="st3" points="257.7,659.4 240.4,629.5 257.7,599.5 292.3,599.5 309.6,629.5 292.3,659.4 		"/>
		<polygon id="XMLID_154_" class="st2" points="254.4,617.6 275,605.7 295.6,617.6 295.6,641.3 275,653.2 254.4,641.3 		"/>
	</g>
	<g id="XMLID_78_">
		<path id="XMLID_172_" class="st0" d="M424.1,612h-40.5c-6.6,0-12,5.4-12,12v15.4c0,6.6,5.4,12,12,12h40.5c6.6,0,12-5.4,12-12V624
			C436.1,617.4,430.7,612,424.1,612z"/>
		<path id="XMLID_173_" class="st0" d="M166.4,612h-40.5c-6.6,0-12,5.4-12,12v15.4c0,6.6,5.4,12,12,12h40.5c6.6,0,12-5.4,12-12V624
			C178.4,617.4,173,612,166.4,612z"/>
	</g>
	<g id="XMLID_167_">
		<path id="XMLID_171_" class="st2" d="M424.1,649.1h-40.5c-6.6,0-12-5.4-12-12v-15.4c0-6.6,5.4-12,12-12h40.5c6.6,0,12,5.4,12,12
			v15.4C436.1,643.7,430.7,649.1,424.1,649.1z"/>
		<path id="XMLID_170_" class="st6" d="M416.9,644.7h-26c-6.6,0-12-5.4-12-12v-6.6c0-6.6,5.4-12,12-12h26c6.6,0,12,5.4,12,12v6.6
			C428.9,639.3,423.5,644.7,416.9,644.7z"/>
		<polygon id="XMLID_169_" class="st7" points="397.1,641.2 390.3,629.5 397.1,617.7 410.6,617.7 417.4,629.5 410.6,641.2 		"/>
		<polygon id="XMLID_168_" class="st2" points="411.1,633.6 403.9,637.8 396.6,633.6 396.6,625.3 403.9,621.1 411.1,625.3 		"/>
	</g>
	<g id="XMLID_152_">
		<path id="XMLID_166_" class="st2" d="M166.4,649.1h-40.5c-6.6,0-12-5.4-12-12v-15.4c0-6.6,5.4-12,12-12h40.5c6.6,0,12,5.4,12,12
			v15.4C178.4,643.7,173,649.1,166.4,649.1z"/>
		<path id="XMLID_165_" class="st6" d="M159.1,644.7h-26c-6.6,0-12-5.4-12-12v-6.6c0-6.6,5.4-12,12-12h26c6.6,0,12,5.4,12,12v6.6
			C171.1,639.3,165.7,644.7,159.1,644.7z"/>
		<polygon id="XMLID_164_" class="st7" points="139.4,641.2 132.6,629.5 139.4,617.7 152.9,617.7 159.7,629.5 152.9,641.2 		"/>
		<polygon id="XMLID_163_" class="st2" points="153.4,633.6 146.1,637.8 138.9,633.6 138.9,625.3 146.1,621.1 153.4,625.3 		"/>
	</g>
</g>
<g id="XMLID_199_">
	<path id="XMLID_232_" class="st0" d="M843.2,616.2c0,0-74.5,0-91.3,0c-16.8,0-24.1-40.3-70.7-40.3c-46.6,0-53.9,40.3-70.7,40.3
		c-16.8,0-91.3,0-91.3,0l-12.2,7.5v19.1v0v19.1l12.2,7.5c0,0,74.5,0,91.3,0c16.8,0,24.1,40.3,70.7,40.3c46.6,0,53.9-40.3,70.7-40.3
		c16.8,0,91.3,0,91.3,0l12.2-7.5v-19.1v0v-19.1L843.2,616.2z"/>
	<path id="XMLID_238_" class="st1" d="M843.2,613c0,0-74.5,0-91.3,0c-16.8,0-24.1-40.3-70.7-40.3c-46.6,0-53.9,40.3-70.7,40.3
		c-16.8,0-91.3,0-91.3,0l-12.2,7.5v19.1v0v19.1l12.2,7.5c0,0,74.5,0,91.3,0c16.8,0,24.1,40.3,70.7,40.3c46.6,0,53.9-40.3,70.7-40.3
		c16.8,0,91.3,0,91.3,0l12.2-7.5v-19.1v0v-19.1L843.2,613z"/>
	<g id="XMLID_198_">
		<g id="XMLID_195_">
			<g id="XMLID_175_">
				<g id="XMLID_147_">
					<polygon id="XMLID_76_" class="st0" points="762.5,661 750.5,648.9 750.5,631.9 762.5,619.9 779.5,619.9 791.5,631.9 
						791.5,648.9 779.5,661 					"/>
					<g id="XMLID_82_">
						<circle id="XMLID_79_" class="st0" cx="757.9" cy="627.6" r="4.3"/>
						<circle id="XMLID_83_" class="st0" cx="784.1" cy="627.6" r="4.3"/>
					</g>
					<g id="XMLID_148_">
						<circle id="XMLID_150_" class="st0" cx="757.9" cy="653.3" r="4.3"/>
						<circle id="XMLID_149_" class="st0" cx="784.1" cy="653.3" r="4.3"/>
					</g>
				</g>
				<g id="XMLID_177_">
					<polygon id="XMLID_178_" class="st0" points="764.4,624.3 754.9,633.8 754.9,647.1 764.4,656.6 771,656.6 771,624.3 					"/>
					<polygon id="XMLID_179_" class="st0" points="777.7,624.3 771,624.3 771,656.6 777.7,656.6 787.1,647.1 787.1,633.8 					"/>
				</g>
				<polygon id="XMLID_176_" class="st0" points="757.6,646 757.6,634.9 765.5,627 776.6,627 784.4,634.9 784.4,646 776.6,653.8 
					765.5,653.8 				"/>
				<circle id="XMLID_174_" class="st0" cx="771" cy="640.4" r="8.6"/>
			</g>
			<g id="XMLID_181_">
				<g id="XMLID_187_">
					<polygon id="XMLID_194_" class="st0" points="818.7,657.2 808.9,647.4 808.9,633.5 818.7,623.7 832.6,623.7 842.5,633.5 
						842.5,647.4 832.6,657.2 					"/>
					<g id="XMLID_191_">
						<circle id="XMLID_193_" class="st0" cx="814.9" cy="629.9" r="3.5"/>
						<circle id="XMLID_192_" class="st0" cx="836.4" cy="629.9" r="3.5"/>
					</g>
					<g id="XMLID_188_">
						<circle id="XMLID_190_" class="st0" cx="814.9" cy="651" r="3.5"/>
						<circle id="XMLID_189_" class="st0" cx="836.4" cy="651" r="3.5"/>
					</g>
				</g>
				<g id="XMLID_184_">
					<polygon id="XMLID_186_" class="st0" points="820.2,627.3 812.5,635 812.5,645.9 820.2,653.6 825.7,653.6 825.7,627.3 					"/>
					<polygon id="XMLID_185_" class="st0" points="831.1,627.3 825.7,627.3 825.7,653.6 831.1,653.6 838.8,645.9 838.8,635 					"/>
				</g>
				<polygon id="XMLID_183_" class="st0" points="814.7,645 814.7,635.9 821.1,629.5 830.2,629.5 836.6,635.9 836.6,645 
					830.2,651.4 821.1,651.4 				"/>
				<circle id="XMLID_182_" class="st0" cx="825.7" cy="640.4" r="7"/>
			</g>
			<rect id="XMLID_196_" x="798" y="635.5" class="st0" width="4.6" height="9.9"/>
			<rect id="XMLID_180_" x="798" y="638.1" class="st0" width="4.6" height="4.6"/>
		</g>
		<g id="XMLID_281_">
			<g id="XMLID_298_">
				<g id="XMLID_304_">
					<polygon id="XMLID_311_" class="st7" points="762.5,659.3 750.5,647.3 750.5,630.3 762.5,618.3 779.5,618.3 791.5,630.3 
						791.5,647.3 779.5,659.3 					"/>
					<g id="XMLID_308_">
						<circle id="XMLID_310_" class="st7" cx="757.9" cy="625.9" r="4.3"/>
						<circle id="XMLID_309_" class="st7" cx="784.1" cy="625.9" r="4.3"/>
					</g>
					<g id="XMLID_305_">
						<circle id="XMLID_307_" class="st7" cx="757.9" cy="651.6" r="4.3"/>
						<circle id="XMLID_306_" class="st7" cx="784.1" cy="651.6" r="4.3"/>
					</g>
				</g>
				<g id="XMLID_301_">
					<polygon id="XMLID_303_" class="st6" points="764.4,622.7 754.9,632.1 754.9,645.4 764.4,654.9 771,654.9 771,622.7 					"/>
					<polygon id="XMLID_302_" class="st2" points="777.7,622.7 771,622.7 771,654.9 777.7,654.9 787.1,645.4 787.1,632.1 					"/>
				</g>
				<polygon id="XMLID_300_" class="st3" points="757.6,644.3 757.6,633.2 765.5,625.4 776.6,625.4 784.4,633.2 784.4,644.3 
					776.6,652.2 765.5,652.2 				"/>
				<circle id="XMLID_299_" class="st2" cx="771" cy="638.8" r="8.6"/>
			</g>
			<g id="XMLID_284_">
				<g id="XMLID_290_">
					<polygon id="XMLID_297_" class="st7" points="818.7,655.6 808.9,645.7 808.9,631.8 818.7,622 832.6,622 842.5,631.8 
						842.5,645.7 832.6,655.6 					"/>
					<g id="XMLID_294_">
						<circle id="XMLID_296_" class="st7" cx="814.9" cy="628.3" r="3.5"/>
						<circle id="XMLID_295_" class="st7" cx="836.4" cy="628.3" r="3.5"/>
					</g>
					<g id="XMLID_291_">
						<circle id="XMLID_293_" class="st7" cx="814.9" cy="649.3" r="3.5"/>
						<circle id="XMLID_292_" class="st7" cx="836.4" cy="649.3" r="3.5"/>
					</g>
				</g>
				<g id="XMLID_287_">
					<polygon id="XMLID_289_" class="st6" points="820.2,625.6 812.5,633.3 812.5,644.2 820.2,652 825.7,652 825.7,625.6 					"/>
					<polygon id="XMLID_288_" class="st2" points="831.1,625.6 825.7,625.6 825.7,652 831.1,652 838.8,644.2 838.8,633.3 					"/>
				</g>
				<polygon id="XMLID_286_" class="st3" points="814.7,643.3 814.7,634.2 821.1,627.8 830.2,627.8 836.6,634.2 836.6,643.3 
					830.2,649.7 821.1,649.7 				"/>
				<circle id="XMLID_285_" class="st2" cx="825.7" cy="638.8" r="7"/>
			</g>
			<rect id="XMLID_283_" x="798" y="633.8" class="st7" width="4.6" height="9.9"/>
			<rect id="XMLID_282_" x="798" y="636.5" class="st2" width="4.6" height="4.6"/>
		</g>
	</g>
	<g id="XMLID_200_">
		<g id="XMLID_252_">
			<g id="XMLID_269_">
				<g id="XMLID_275_">
					<polygon id="XMLID_313_" class="st0" points="599.9,618.3 611.9,630.3 611.9,647.3 599.9,659.3 582.9,659.3 570.8,647.3 
						570.8,630.3 582.9,618.3 					"/>
					<g id="XMLID_279_">
						<circle id="XMLID_312_" class="st0" cx="604.5" cy="651.6" r="4.3"/>
						<circle id="XMLID_280_" class="st0" cx="578.2" cy="651.6" r="4.3"/>
					</g>
					<g id="XMLID_276_">
						<circle id="XMLID_278_" class="st0" cx="604.5" cy="625.9" r="4.3"/>
						<circle id="XMLID_277_" class="st0" cx="578.2" cy="625.9" r="4.3"/>
					</g>
				</g>
				<g id="XMLID_272_">
					<polygon id="XMLID_274_" class="st0" points="598,654.9 607.5,645.4 607.5,632.1 598,622.7 591.4,622.7 591.4,654.9 					"/>
					<polygon id="XMLID_273_" class="st0" points="584.7,654.9 591.4,654.9 591.4,622.7 584.7,622.7 575.2,632.1 575.2,645.4 					
						"/>
				</g>
				<polygon id="XMLID_271_" class="st0" points="604.8,633.2 604.8,644.3 596.9,652.2 585.8,652.2 578,644.3 578,633.2 
					585.8,625.4 596.9,625.4 				"/>
				<circle id="XMLID_270_" class="st0" cx="591.4" cy="638.8" r="8.6"/>
			</g>
			<g id="XMLID_255_">
				<g id="XMLID_261_">
					<polygon id="XMLID_268_" class="st0" points="543.7,622 553.5,631.8 553.5,645.7 543.7,655.6 529.8,655.6 519.9,645.7 
						519.9,631.8 529.8,622 					"/>
					<g id="XMLID_265_">
						<circle id="XMLID_267_" class="st0" cx="547.5" cy="649.3" r="3.5"/>
						<circle id="XMLID_266_" class="st0" cx="526" cy="649.3" r="3.5"/>
					</g>
					<g id="XMLID_262_">
						<circle id="XMLID_264_" class="st0" cx="547.5" cy="628.3" r="3.5"/>
						<circle id="XMLID_263_" class="st0" cx="526" cy="628.3" r="3.5"/>
					</g>
				</g>
				<g id="XMLID_258_">
					<polygon id="XMLID_260_" class="st0" points="542.2,652 549.9,644.2 549.9,633.3 542.2,625.6 536.7,625.6 536.7,652 					"/>
					<polygon id="XMLID_259_" class="st0" points="531.3,652 536.7,652 536.7,625.6 531.3,625.6 523.5,633.3 523.5,644.2 					"/>
				</g>
				<polygon id="XMLID_257_" class="st0" points="547.7,634.2 547.7,643.3 541.3,649.7 532.2,649.7 525.8,643.3 525.8,634.2 
					532.2,627.8 541.3,627.8 				"/>
				<circle id="XMLID_256_" class="st0" cx="536.7" cy="638.8" r="7"/>
			</g>
			<rect id="XMLID_254_" x="559.8" y="633.8" class="st0" width="4.6" height="9.9"/>
			<rect id="XMLID_253_" x="559.8" y="636.5" class="st0" width="4.6" height="4.6"/>
		</g>
		<g id="XMLID_201_">
			<g id="XMLID_218_">
				<g id="XMLID_224_">
					<polygon id="XMLID_251_" class="st7" points="599.9,619.9 611.9,631.9 611.9,648.9 599.9,661 582.9,661 570.8,648.9 
						570.8,631.9 582.9,619.9 					"/>
					<g id="XMLID_228_">
						<circle id="XMLID_250_" class="st7" cx="604.5" cy="653.3" r="4.3"/>
						<circle id="XMLID_249_" class="st7" cx="578.2" cy="653.3" r="4.3"/>
					</g>
					<g id="XMLID_225_">
						<circle id="XMLID_227_" class="st7" cx="604.5" cy="627.6" r="4.3"/>
						<circle id="XMLID_226_" class="st7" cx="578.2" cy="627.6" r="4.3"/>
					</g>
				</g>
				<g id="XMLID_221_">
					<polygon id="XMLID_223_" class="st6" points="598,656.6 607.5,647.1 607.5,633.8 598,624.3 591.4,624.3 591.4,656.6 					"/>
					<polygon id="XMLID_222_" class="st2" points="584.7,656.6 591.4,656.6 591.4,624.3 584.7,624.3 575.2,633.8 575.2,647.1 					
						"/>
				</g>
				<polygon id="XMLID_220_" class="st3" points="604.8,634.9 604.8,646 596.9,653.8 585.8,653.8 578,646 578,634.9 585.8,627 
					596.9,627 				"/>
				<circle id="XMLID_219_" class="st2" cx="591.4" cy="640.4" r="8.6"/>
			</g>
			<g id="XMLID_204_">
				<g id="XMLID_210_">
					<polygon id="XMLID_217_" class="st7" points="543.7,623.7 553.5,633.5 553.5,647.4 543.7,657.2 529.8,657.2 519.9,647.4 
						519.9,633.5 529.8,623.7 					"/>
					<g id="XMLID_214_">
						<circle id="XMLID_216_" class="st7" cx="547.5" cy="651" r="3.5"/>
						<circle id="XMLID_215_" class="st7" cx="526" cy="651" r="3.5"/>
					</g>
					<g id="XMLID_211_">
						<circle id="XMLID_213_" class="st7" cx="547.5" cy="629.9" r="3.5"/>
						<circle id="XMLID_212_" class="st7" cx="526" cy="629.9" r="3.5"/>
					</g>
				</g>
				<g id="XMLID_207_">
					<polygon id="XMLID_209_" class="st6" points="542.2,653.6 549.9,645.9 549.9,635 542.2,627.3 536.7,627.3 536.7,653.6 					"/>
					<polygon id="XMLID_208_" class="st2" points="531.3,653.6 536.7,653.6 536.7,627.3 531.3,627.3 523.5,635 523.5,645.9 					"/>
				</g>
				<polygon id="XMLID_206_" class="st3" points="547.7,635.9 547.7,645 541.3,651.4 532.2,651.4 525.8,645 525.8,635.9 
					532.2,629.5 541.3,629.5 				"/>
				<circle id="XMLID_205_" class="st2" cx="536.7" cy="640.4" r="7"/>
			</g>
			<rect id="XMLID_203_" x="559.8" y="635.5" class="st7" width="4.6" height="9.9"/>
			<rect id="XMLID_202_" x="559.8" y="638.1" class="st2" width="4.6" height="4.6"/>
		</g>
	</g>
	<g id="XMLID_239_">
		<g id="XMLID_197_">
			<path id="XMLID_80_" class="st0" d="M731.6,625.7v-5.4c0,0-10.1,0.3-10.1-10.1V604h-7v-3.5c0,0-8.6,0.4-8.6-8.1h-5.9l-4-4h-14.9
				H681h-14.9l-4,4h-5.9c0,8.5-8.6,8.1-8.6,8.1v3.5h-7v6.2c0,10.4-10.1,10.1-10.1,10.1v5.4l-4,4v13v13l4,4v5.4
				c0,0,10.1-0.3,10.1,10.1v6.2h7v3.5c0,0,8.6-0.4,8.6,8.1h5.9l4,4H681h0.2h14.9l4-4h5.9c0-8.5,8.6-8.1,8.6-8.1v-3.5h7v-6.2
				c0-10.4,10.1-10.1,10.1-10.1v-5.4l4-4v-13v-13L731.6,625.7z"/>
			<g id="XMLID_233_">
				<path id="XMLID_234_" class="st0" d="M681.2,674.6c-8.8,0-16.8-3.6-22.5-9.3l-7.5,7.5c7.7,7.7,18.3,12.4,30,12.4
					c11.7,0,22.3-4.8,30-12.4l-7.5-7.5C697.9,671.1,690,674.6,681.2,674.6z"/>
				<g id="XMLID_229_">
					<path id="XMLID_230_" class="st0" d="M638.7,642.8c0,11.7,4.8,22.3,12.4,30l7.5-7.5c-5.8-5.8-9.3-13.7-9.3-22.5
						c0-17.6,14.3-31.8,31.8-31.8v-10.6C657.7,600.3,638.7,619.3,638.7,642.8z"/>
					<path id="XMLID_235_" class="st0" d="M681.2,600.3v10.6c17.6,0,31.8,14.3,31.8,31.8c0,8.8-3.6,16.8-9.3,22.5l7.5,7.5
						c7.7-7.7,12.4-18.3,12.4-30C723.7,619.3,704.6,600.3,681.2,600.3z"/>
				</g>
				<path id="XMLID_236_" class="st0" d="M681.2,674.6c8.8,0,16.8-3.6,22.5-9.3l-22.5-22.5l-22.5,22.5
					C664.4,671.1,672.4,674.6,681.2,674.6z"/>
				<path id="XMLID_237_" class="st0" d="M703.7,665.3c5.8-5.8,9.3-13.7,9.3-22.5c0-17.6-14.3-31.8-31.8-31.8
					c-17.6,0-31.8,14.3-31.8,31.8c0,8.8,3.6,16.8,9.3,22.5l22.5-22.5L703.7,665.3z"/>
			</g>
		</g>
		<g id="XMLID_240_">
			<g id="XMLID_231_">
				<path id="XMLID_314_" class="st6" d="M681,585.6h-14.9l-4,4h-5.9c0,8.5-8.6,8.1-8.6,8.1v3.5h-7v6.2c0,10.4-10.1,10.1-10.1,10.1
					v5.4l-4,4v13v13l4,4v5.4c0,0,10.1-0.3,10.1,10.1v6.2h7v3.5c0,0,8.6-0.4,8.6,8.1h5.9l4,4H681h0.2V585.6H681z"/>
				<path id="XMLID_315_" class="st7" d="M731.6,623v-5.4c0,0-10.1,0.3-10.1-10.1v-6.2h-7v-3.5c0,0-8.6,0.4-8.6-8.1h-5.9l-4-4h-14.9
					v108.8h14.9l4-4h5.9c0-8.5,8.6-8.1,8.6-8.1v-3.5h7v-6.2c0-10.4,10.1-10.1,10.1-10.1v-5.4l4-4v-13v-13L731.6,623z"/>
			</g>
			<g id="XMLID_241_">
				<path id="XMLID_247_" class="st3" d="M681.2,671.9c-8.8,0-16.8-3.6-22.5-9.3l-7.5,7.5c7.7,7.7,18.3,12.4,30,12.4
					c11.7,0,22.3-4.8,30-12.4l-7.5-7.5C697.9,668.3,690,671.9,681.2,671.9z"/>
				<g id="XMLID_244_">
					<path id="XMLID_246_" class="st2" d="M638.7,640c0,11.7,4.8,22.3,12.4,30l7.5-7.5c-5.8-5.8-9.3-13.7-9.3-22.5
						c0-17.6,14.3-31.8,31.8-31.8v-10.6C657.7,597.6,638.7,616.6,638.7,640z"/>
					<path id="XMLID_245_" class="st6" d="M681.2,597.6v10.6c17.6,0,31.8,14.3,31.8,31.8c0,8.8-3.6,16.8-9.3,22.5l7.5,7.5
						c7.7-7.7,12.4-18.3,12.4-30C723.7,616.6,704.6,597.6,681.2,597.6z"/>
				</g>
				<path id="XMLID_243_" class="st2" d="M681.2,671.9c8.8,0,16.8-3.6,22.5-9.3L681.2,640l-22.5,22.5
					C664.4,668.3,672.4,671.9,681.2,671.9z"/>
				<path id="XMLID_242_" class="st3" d="M703.7,662.5c5.8-5.8,9.3-13.7,9.3-22.5c0-17.6-14.3-31.8-31.8-31.8
					c-17.6,0-31.8,14.3-31.8,31.8c0,8.8,3.6,16.8,9.3,22.5l22.5-22.5L703.7,662.5z"/>
			</g>
		</g>
	</g>
</g>
<g id="XMLID_51_">
	<polygon id="XMLID_52_" class="st0" points="1267.1,610.5 1262,600.8 1186.5,600.8 1159,575.3 1109.1,562 1059.3,575.3 
		1031.7,600.8 956.2,600.8 951.1,610.5 943,620.2 943,672.5 956,679.1 965.4,686.8 1039.4,686.8 1066.4,711.8 1109.1,723.7 
		1109.1,723.7 1109.1,723.7 1109.1,723.7 1109.1,723.7 1151.8,711.8 1178.9,686.8 1252.8,686.8 1262.3,679.1 1275.3,672.5 
		1275.3,620.2 	"/>
	<polygon id="XMLID_57_" class="st1" points="1267.1,606.1 1262,596.4 1186.5,596.4 1159,570.9 1109.1,557.6 1059.3,570.9 
		1031.7,596.4 956.2,596.4 951.1,606.1 943,615.8 943,668.1 956,674.7 965.4,682.4 1039.4,682.4 1066.4,707.4 1109.1,719.4 
		1109.1,719.4 1109.1,719.4 1109.1,719.4 1109.1,719.4 1151.8,707.4 1178.9,682.4 1252.8,682.4 1262.3,674.7 1275.3,668.1 
		1275.3,615.8 	"/>
	<g id="XMLID_20_">
		<circle id="XMLID_354_" class="st0" cx="992" cy="640.7" r="22.8"/>
		<circle id="XMLID_355_" class="st0" cx="1226" cy="640.7" r="22.8"/>
	</g>
	<path id="XMLID_366_" class="st0" d="M1168.8,603.3l-3.9-2.6v-7l-10.8-5.1l-9.4-4.4v-6.3l-35.7-7h0l-35.7,7v6.3l-9.4,4.4l-10.8,5.1
		v7l-3.9,2.6l-8.8,5.9v67.2l11.5,4.1l3,1.1v6.3l14.6,5.4l5.1,1.9v6c13.2,6.7,34.2,7.7,34.3,7.7c0,0,21-1,34.3-7.7v-6l5.1-1.9
		l14.6-5.4v-6.3l3-1.1l11.5-4.1v-67.2L1168.8,603.3z"/>
	<g id="XMLID_344_">
		<g id="XMLID_352_">
			<polygon id="XMLID_365_" class="st5" points="1049.4,600.3 1052.2,677.4 1055.1,678.5 1053.3,597.7 			"/>
			<polygon id="XMLID_364_" class="st4" points="1040.6,606.2 1040.6,673.3 1052.2,677.4 1049.4,600.3 			"/>
			<polygon id="XMLID_363_" class="st6" points="1053.3,590.7 1053.3,597.7 1055.1,678.5 1055.1,684.8 1069.8,690.3 1064,585.6 			
				"/>
			<polygon id="XMLID_362_" class="st7" points="1064,585.6 1069.8,690.3 1074.9,692.2 1073.5,581.2 			"/>
			<polygon id="XMLID_361_" class="st7" points="1144.8,581.2 1143.4,692.2 1148.5,690.3 1154.2,585.6 			"/>
			<polygon id="XMLID_360_" class="st6" points="1165,590.7 1154.2,585.6 1148.5,690.3 1163.1,684.8 1163.1,678.5 1165,597.7 			"/>
			<polygon id="XMLID_359_" class="st5" points="1165,597.7 1163.1,678.5 1166.1,677.4 1168.8,600.3 			"/>
			<polygon id="XMLID_358_" class="st4" points="1177.6,606.2 1168.8,600.3 1166.1,677.4 1177.6,673.3 			"/>
			<path id="XMLID_357_" class="st3" d="M1073.5,574.8v6.3l1.4,111v6c13.2,6.7,34.2,7.7,34.3,7.7l0-138L1073.5,574.8z"/>
			<path id="XMLID_356_" class="st2" d="M1144.8,574.8l-35.7-7v138c0,0,21-1,34.3-7.7v-6l1.4-111V574.8z"/>
			<rect id="XMLID_353_" x="1109.1" y="567.8" class="st2" width="0" height="138"/>
		</g>
		<polygon id="XMLID_351_" class="st3" points="1097.4,664.9 1080.9,648.3 1080.9,625 1097.4,608.5 1120.8,608.5 1137.3,625 
			1137.3,648.3 1120.8,664.9 		"/>
		<polygon id="XMLID_350_" class="st2" points="1100.3,657.9 1087.9,645.5 1087.9,627.9 1100.3,615.5 1117.9,615.5 1130.3,627.9 
			1130.3,645.5 1117.9,657.9 		"/>
		<circle id="XMLID_349_" class="st6" cx="1109.1" cy="636.7" r="17.2"/>
		<circle id="XMLID_348_" class="st2" cx="1109.1" cy="585.6" r="6.4"/>
		<circle id="XMLID_347_" class="st2" cx="1109.1" cy="684.9" r="6.4"/>
		<circle id="XMLID_346_" class="st3" cx="1109.1" cy="585.6" r="3.7"/>
		<circle id="XMLID_345_" class="st3" cx="1109.1" cy="684.9" r="3.7"/>
	</g>
	<g id="XMLID_317_">
		<g id="XMLID_322_">
			<path id="XMLID_324_" class="st2" d="M992,615v45.5c12.6,0,22.8-10.2,22.8-22.8C1014.8,625.1,1004.6,615,992,615z"/>
			<path id="XMLID_323_" class="st6" d="M969.3,637.7c0,12.6,10.2,22.8,22.8,22.8V615C979.4,615,969.3,625.1,969.3,637.7z"/>
		</g>
		<circle id="XMLID_320_" class="st7" cx="992" cy="637.7" r="14.9"/>
		<polygon id="XMLID_319_" class="st3" points="997.4,640 998.6,647.6 991.8,643.9 985,647.4 986.4,639.8 980.9,634.4 988.6,633.4 
			992,626.6 995.4,633.5 1002.9,634.7 		"/>
	</g>
	<g id="XMLID_325_">
		<g id="XMLID_339_">
			<path id="XMLID_341_" class="st2" d="M1226,615v45.5c12.6,0,22.8-10.2,22.8-22.8C1248.8,625.1,1238.6,615,1226,615z"/>
			<path id="XMLID_340_" class="st6" d="M1203.3,637.7c0,12.6,10.2,22.8,22.8,22.8V615C1213.4,615,1203.3,625.1,1203.3,637.7z"/>
		</g>
		<circle id="XMLID_327_" class="st7" cx="1226" cy="637.7" r="14.9"/>
		<polygon id="XMLID_326_" class="st3" points="1231.4,640 1232.6,647.6 1225.8,643.9 1219,647.4 1220.4,639.8 1214.9,634.4 
			1222.6,633.4 1226,626.6 1229.4,633.5 1236.9,634.7 		"/>
	</g>
</g>
</svg>
